<?xml version="1.0" encoding="UTF-8"?>
<svg id="Layer_1" data-name="Layer 1" xmlns="http://www.w3.org/2000/svg" viewBox="0 0 800 800">
  <defs>
    <style>
      .cls-1 {
        fill: #0f0a0a;
      }

      .cls-2 {
        fill: #fdd730;
      }
    </style>
  </defs>
  <g>
    <path class="cls-2" d="m707.31,386.64c0,29.52,23.93,53.45,53.45,53.45-29.52,0-53.45,23.93-53.45,53.45,0-29.52-23.93-53.45-53.45-53.45,29.52,0,53.45-23.93,53.45-53.45Z"/>
    <path class="cls-2" d="m560.33,613.78c0,29.52,23.93,53.45,53.45,53.45-29.52,0-53.45,23.93-53.45,53.45,0-29.52-23.93-53.45-53.45-53.45,29.52,0,53.45-23.93,53.45-53.45Z"/>
    <path class="cls-2" d="m92.69,92.69c0,29.52,23.93,53.45,53.45,53.45-29.52,0-53.45,23.93-53.45,53.45,0-29.52-23.93-53.45-53.45-53.45,29.52,0,53.45-23.93,53.45-53.45Z"/>
  </g>
  <path class="cls-1" d="m760.75,427.56c-22.56,0-40.92-18.35-40.92-40.92,0-6.92-5.61-12.53-12.53-12.53s-12.53,5.61-12.53,12.53c0,22.56-18.36,40.92-40.92,40.92-6.92,0-12.53,5.61-12.53,12.53s5.61,12.53,12.53,12.53c22.56,0,40.92,18.35,40.92,40.92,0,6.92,5.61,12.53,12.53,12.53s12.53-5.61,12.53-12.53c0-22.56,18.36-40.92,40.92-40.92,6.92,0,12.53-5.61,12.53-12.53s-5.61-12.53-12.53-12.53Zm-53.45,27.33c-4.12-5.68-9.12-10.69-14.81-14.81,5.68-4.12,10.69-9.13,14.81-14.81,4.12,5.68,9.12,10.69,14.81,14.81-5.68,4.12-10.69,9.13-14.81,14.81Z"/>
  <path class="cls-1" d="m613.78,654.7c-22.56,0-40.92-18.35-40.92-40.92,0-6.92-5.61-12.53-12.53-12.53s-12.53,5.61-12.53,12.53c0,22.56-18.36,40.92-40.92,40.92-6.92,0-12.53,5.61-12.53,12.53s5.61,12.53,12.53,12.53c22.56,0,40.92,18.35,40.92,40.92,0,6.92,5.61,12.53,12.53,12.53s12.53-5.61,12.53-12.53c0-22.56,18.36-40.92,40.92-40.92,6.92,0,12.53-5.61,12.53-12.53s-5.61-12.53-12.53-12.53Zm-53.44,27.34c-4.12-5.68-9.12-10.69-14.81-14.81,5.68-4.12,10.69-9.13,14.81-14.81,4.12,5.68,9.12,10.69,14.81,14.81-5.68,4.12-10.69,9.13-14.81,14.81Z"/>
  <path class="cls-1" d="m39.25,158.66c22.56,0,40.92,18.35,40.92,40.92,0,6.92,5.61,12.53,12.53,12.53s12.53-5.61,12.53-12.53c0-22.56,18.36-40.92,40.92-40.92,6.92,0,12.53-5.61,12.53-12.53s-5.61-12.53-12.53-12.53c-22.56,0-40.92-18.35-40.92-40.92,0-6.92-5.61-12.53-12.53-12.53s-12.53,5.61-12.53,12.53c0,22.56-18.36,40.92-40.92,40.92-6.92,0-12.53,5.61-12.53,12.53,0,6.92,5.61,12.53,12.53,12.53Zm53.45-27.34c4.12,5.68,9.13,10.69,14.81,14.81-5.68,4.12-10.69,9.13-14.81,14.81-4.12-5.68-9.13-10.69-14.81-14.81,5.68-4.12,10.69-9.13,14.81-14.81Z"/>
</svg>