<?xml version="1.0" encoding="iso-8859-1"?>
<!-- Uploaded to: SVG Repo, www.svgrepo.com, Generator: SVG Repo Mixer Tools -->
<svg version="1.1" id="Layer_1" xmlns="http://www.w3.org/2000/svg" xmlns:xlink="http://www.w3.org/1999/xlink" 
	 viewBox="0 0 512 512" xml:space="preserve">
<rect x="8.294" y="96.76" style="fill:#7DBB34;" width="495.413" height="318.479"/>
<rect x="34.834" y="123.3" style="fill:#F9D84E;" width="442.333" height="265.4"/>
<polygon style="fill:#FFC20D;" points="52.527,371.006 52.527,123.3 34.834,123.3 34.834,388.7 477.166,388.7 477.166,371.006 "/>
<rect x="149.84" y="185.227" style="fill:#BDBDC0;" width="212.32" height="141.546"/>
<g>
	<polygon style="fill:#909296;" points="362.16,326.773 362.16,290.281 325.667,326.773 	"/>
	<polygon style="fill:#909296;" points="149.84,185.227 149.84,253.235 217.849,185.227 	"/>
	<polygon style="fill:#909296;" points="270.929,185.227 149.84,306.315 149.84,326.773 230.566,326.773 362.16,195.179 
		362.16,185.227 	"/>
	<polygon style="fill:#909296;" points="275.352,326.773 314.609,326.773 362.16,279.222 362.16,239.965 	"/>
</g>
<g>
	<circle style="fill:#FD5E95;" cx="87.914" cy="326.773" r="26.54"/>
	<circle style="fill:#FD5E95;" cx="424.086" cy="326.773" r="26.54"/>
</g>
<rect x="61.374" y="158.687" style="fill:#BDBDC0;" width="53.08" height="53.08"/>
<path d="M503.706,88.467H114.454c-4.58,0-8.294,3.712-8.294,8.294c0,4.581,3.713,8.294,8.294,8.294h380.959v301.892H16.587V105.054
	h62.479c4.58,0,8.294-3.712,8.294-8.294c0-4.581-3.713-8.294-8.294-8.294H8.294C3.713,88.467,0,92.179,0,96.76V415.24
	c0,4.581,3.713,8.294,8.294,8.294h495.413c4.58,0,8.294-3.712,8.294-8.294V96.76C512,92.179,508.287,88.467,503.706,88.467z"/>
<path d="M26.54,123.3v265.4c0,4.581,3.713,8.294,8.294,8.294h442.333c4.58,0,8.294-3.712,8.294-8.294V123.3
	c0-4.581-3.713-8.294-8.294-8.294H34.834C30.253,115.006,26.54,118.719,26.54,123.3z M43.127,131.594h425.745v248.812H43.127
	V131.594z"/>
<path d="M362.16,176.933H149.84c-4.58,0-8.294,3.712-8.294,8.294v141.546c0,4.581,3.713,8.294,8.294,8.294h159.24
	c4.58,0,8.294-3.712,8.294-8.294c0-4.581-3.713-8.294-8.294-8.294H158.134V193.521h195.732v124.959H335.62
	c-4.58,0-8.294,3.712-8.294,8.294c0,4.581,3.713,8.294,8.294,8.294h26.54c4.58,0,8.294-3.712,8.294-8.294V185.227
	C370.454,180.645,366.74,176.933,362.16,176.933z"/>
<path d="M87.914,291.94c-19.207,0-34.834,15.627-34.834,34.834c0,19.207,15.627,34.834,34.834,34.834s34.834-15.627,34.834-34.834
	C122.747,307.566,107.121,291.94,87.914,291.94z M87.914,345.019c-10.061,0-18.246-8.185-18.246-18.246
	c0-10.061,8.185-18.246,18.246-18.246s18.246,8.185,18.246,18.246C106.16,336.834,97.974,345.019,87.914,345.019z"/>
<path d="M424.086,291.94c-19.207,0-34.834,15.627-34.834,34.834c0,19.207,15.627,34.834,34.834,34.834
	c19.207,0,34.834-15.627,34.834-34.834C458.92,307.566,443.294,291.94,424.086,291.94z M424.086,345.019
	c-10.061,0-18.246-8.185-18.246-18.246c0-10.061,8.185-18.246,18.246-18.246c10.061,0,18.246,8.185,18.246,18.246
	C442.333,336.834,434.147,345.019,424.086,345.019z"/>
<path d="M406.393,166.981h17.693c4.58,0,8.294-3.712,8.294-8.294c0-4.581-3.713-8.294-8.294-8.294h-17.693
	c-4.58,0-8.294,3.712-8.294,8.294C398.099,163.268,401.813,166.981,406.393,166.981z"/>
<path d="M406.393,202.367h17.693c4.58,0,8.294-3.712,8.294-8.294s-3.713-8.294-8.294-8.294h-17.693c-4.58,0-8.294,3.712-8.294,8.294
	S401.813,202.367,406.393,202.367z"/>
<path d="M406.393,237.754h17.693c4.58,0,8.294-3.712,8.294-8.294s-3.713-8.294-8.294-8.294h-17.693c-4.58,0-8.294,3.712-8.294,8.294
	S401.813,237.754,406.393,237.754z"/>
<path d="M114.454,150.393h-53.08c-4.58,0-8.294,3.712-8.294,8.294v53.08c0,4.581,3.713,8.294,8.294,8.294h53.08
	c4.58,0,8.294-3.712,8.294-8.294v-53.08C122.747,154.105,119.034,150.393,114.454,150.393z M106.16,203.473H69.667v-36.492h36.492
	V203.473z"/>
<path d="M362.16,150.393H149.84c-4.58,0-8.294,3.712-8.294,8.294c0,4.581,3.713,8.294,8.294,8.294h212.32
	c4.58,0,8.294-3.712,8.294-8.294C370.454,154.105,366.74,150.393,362.16,150.393z"/>
<path d="M362.16,345.019H149.84c-4.58,0-8.294,3.712-8.294,8.294c0,4.581,3.713,8.294,8.294,8.294h212.32
	c4.58,0,8.294-3.712,8.294-8.294C370.454,348.732,366.74,345.019,362.16,345.019z"/>
</svg>