<?xml version="1.0" encoding="UTF-8"?>
<svg id="Laag_1" data-name="Laag 1" xmlns="http://www.w3.org/2000/svg" viewBox="0 0 841.89 595.28">
  <defs>
    <style>
      .cls-1 {
        fill: #fff;
      }

      .cls-2 {
        fill: #1e1e1c;
      }
    </style>
  </defs>
  <path class="cls-2" d="m308.98,376.74c-16.04,0-26.7-4.06-30.77-11.97-5.83-11.32,2.6-29.06,23.74-49.96,20.99-20.75,52.05-42.22,87.44-60.45,35.39-18.23,70.9-31.05,99.99-36.1,29.29-5.08,48.63-1.64,54.46,9.68h0c5.83,11.32-2.6,29.06-23.74,49.96-20.99,20.75-52.05,42.22-87.44,60.45-35.4,18.23-70.91,31.05-99.99,36.1-8.83,1.53-16.77,2.29-23.69,2.29Zm204.21-159.67c-6.88,0-14.78.76-23.62,2.29-28.98,5.03-64.37,17.81-99.67,35.99-35.3,18.18-66.25,39.58-87.17,60.26-20.77,20.53-29.13,37.81-23.54,48.66,5.59,10.85,24.52,14.08,53.29,9.09,28.98-5.03,64.37-17.81,99.67-35.99,35.3-18.18,66.26-39.58,87.17-60.26,20.77-20.53,29.13-37.81,23.54-48.66h0c-3.87-7.52-14.15-11.38-29.67-11.38Z"/>
  <path class="cls-2" d="m611.57,267.8l-5.13,1.34c-5.24,1.37-9.21,5.65-10.19,10.97l-.9,4.87-.9-4.87c-.98-5.32-4.95-9.59-10.19-10.96l-5.13-1.34,5.14-1.31c5.23-1.34,9.22-5.57,10.24-10.87l.83-4.32.83,4.32c1.02,5.3,5.01,9.54,10.25,10.88l5.14,1.31Z"/>
  <g>
    <path class="cls-2" d="m309.42,280.61c-.78,1.8-1.9,3.9-3.37,6.28-1.47,2.4-2.96,4.98-4.48,7.77-1.52,2.77-3.1,5.6-4.75,8.46-1.65,2.85-3.23,5.66-4.75,8.42-1.52,2.76-2.93,5.34-4.25,7.76-1.32,2.43-2.48,4.59-3.48,6.49-1,1.91-1.83,3.37-2.51,4.4-2.52,0-5.5-.02-8.92-.03-3.43-.03-7.49-.05-12.18-.05h-17.68c-2.23,0-3.81.03-4.8.08,0-1.18-.11-2.9-.31-5.14s-.42-4.84-.66-7.84c-.22-2.98-.47-6.16-.72-9.5-.27-3.35-.5-6.69-.74-10.05-.24-3.35-.5-6.52-.81-9.5-.31-2.99-.61-5.52-.92-7.57h31.28c-.46,3.03-1.94,22.93-2.55,33.05-.02.22-.02.42-.03.63h.94c.47-1.03.96-2.13,1.46-3.29,1.25-2.9,2.63-5.92,4.12-9.07.88-2.21,1.79-4.39,2.71-6.52.92-2.15,1.8-4.18,2.63-6.14.82-1.96,1.52-3.67,2.12-5.14s1.02-2.63,1.27-3.51h31.38Z"/>
    <path class="cls-2" d="m237.48,331.02v-.82c0-1.11-.1-2.77-.31-5.07-.2-2.24-.42-4.85-.66-7.85-.13-1.72-.26-3.5-.4-5.34l-.32-4.16c-.27-3.35-.5-6.69-.74-10.05-.25-3.52-.51-6.62-.81-9.47-.34-3.28-.64-5.67-.92-7.53l-.14-.9h33.11l-.14.9c-.44,2.93-1.83,21.53-2.47,31.77.26-.58.52-1.18.79-1.8,1.21-2.8,2.56-5.78,4.13-9.1.83-2.1,1.75-4.3,2.7-6.5l.05-.11c.91-2.1,1.77-4.1,2.58-6.03.81-1.95,1.52-3.66,2.11-5.13.6-1.49,1.01-2.61,1.24-3.43l.16-.57h33.16l-.48,1.1c-.83,1.9-1.98,4.05-3.42,6.38-1.44,2.34-2.94,4.95-4.46,7.74-1.51,2.76-3.11,5.61-4.76,8.48-1.64,2.84-3.23,5.66-4.74,8.41-1.52,2.76-2.93,5.34-4.24,7.75-1.32,2.43-2.47,4.59-3.48,6.48-1.02,1.94-1.85,3.4-2.54,4.47l-.23.36h-.42c-2.19,0-4.73-.01-7.6-.02h-1.32c-3.43-.04-7.49-.05-12.17-.05h-17.68c-2.59,0-4.02.04-4.76.08l-.82.04Zm5.58-1.68h17.68c4.69,0,8.75.02,12.19.05h1.32c2.68.02,5.07.03,7.16.03.62-.98,1.37-2.32,2.24-3.98,1-1.9,2.17-4.07,3.48-6.5,1.32-2.42,2.73-5.01,4.25-7.76,1.52-2.75,3.12-5.59,4.76-8.43,1.64-2.86,3.23-5.7,4.74-8.45,1.53-2.81,3.05-5.44,4.5-7.81,1.13-1.83,2.08-3.54,2.82-5.09h-29.58c-.26.8-.63,1.79-1.12,3.02-.6,1.48-1.3,3.19-2.12,5.15-.82,1.93-1.68,3.93-2.59,6.04l-.05.11c-.95,2.18-1.86,4.37-2.7,6.5-1.58,3.35-2.93,6.31-4.13,9.1-.5,1.17-.99,2.27-1.46,3.3l-.21.46h-2.29l.07-.84c0-.09.01-.19.01-.29,0-.11,0-.22.02-.33.56-9.22,1.89-27.24,2.45-32.21h-29.49c.25,1.74.5,3.9.8,6.71.3,2.87.57,5.98.82,9.52.24,3.35.47,6.69.74,10.04l.32,4.16c.14,1.84.28,3.63.4,5.34.23,2.99.45,5.58.66,7.82.17,1.85.27,3.3.3,4.4,1.04-.03,2.41-.05,4.03-.05Z"/>
  </g>
  <g>
    <path class="cls-2" d="m373.23,287.63c-1.24-1.8-3.1-3.32-5.56-4.55-2.48-1.24-5.77-2.23-9.89-2.95-4.12-.72-9.17-1.08-15.14-1.08s-11.14.42-15.48,1.24c-4.36.83-8.1,2.1-11.25,3.82-3.13,1.72-5.7,4.11-7.71,7.15-2.02,3.04-3.64,6.8-4.87,11.28-.92,4.17-1.33,7.84-1.24,11,.11,3.17.83,5.85,2.16,8.04,1.35,2.18,3.39,4.04,6.14,5.6,2.76,1.54,6.24,2.65,10.42,3.32,4.2.66,9.01,1,14.42,1,4.78,0,8.92-.13,12.4-.39,3.48-.25,6.44-.75,8.92-1.5,2.48-.74,4.58-1.65,6.33-2.7,1.76-1.07,3.17-2.29,4.25-3.67,1.08-1.39,1.97-3.02,2.66-4.87.71-1.85,1.22-3.92,1.58-6.18-2.05.09-4.33.17-6.83.22-2.49.06-5,.08-7.52.08-1.76,0-3.5,0-5.22-.03-1.72-.03-3.24-.05-4.56-.08-1.32-.03-2.38-.09-3.2-.19-.31.88-.6,1.65-.86,2.32-.25.66-.58,1.22-1,1.69-.41.47-.88.85-1.38,1.16-.52.31-1.13.53-1.82.66-.71.13-1.49.19-2.37.19-1.29,0-2.37-.2-3.24-.61-.88-.42-1.5-1.1-1.88-2.05-.39-.96-.5-2.26-.36-3.9.08-.86.24-1.8.47-2.84.58-.02,1.19-.02,1.85-.02,1.71,0,3.62-.02,5.77-.05,2.13-.02,4.39-.03,6.76-.03h6.8c2.37,0,4.69.02,6.99.03,2.29.03,4.47.06,6.57.08,2.08.03,3.95.05,5.6.05.36-.52.67-1.16.92-1.93.25-.78.53-1.6.81-2.48.28-.88.5-1.71.66-2.48.66-2.98.96-5.67.88-8.07-.08-2.4-.72-4.5-1.96-6.3Zm-25.66,12.21c-.08.34-.19.67-.3.97-.22-.02-.42,0-.63,0-1.29.02-2.52.03-3.7.03s-2.29.02-3.29.05c-1,.02-1.97.03-2.93.03s-1.88-.02-2.79-.03c-.11,0-.22,0-.33-.02.25-.82.52-1.55.8-2.19.75-1.74,1.52-3.13,2.32-4.17.8-1.03,1.68-1.74,2.66-2.13.97-.38,2.12-.58,3.4-.58s2.26.16,3.09.44c.82.28,1.38.72,1.66,1.3.28.6.44,1.43.45,2.48.03,1.07-.11,2.34-.42,3.82Z"/>
    <path class="cls-2" d="m335.22,332.3c-5.36,0-10.25-.34-14.54-1.01-4.25-.69-7.85-1.83-10.68-3.41-2.85-1.6-5.01-3.58-6.43-5.87-1.4-2.31-2.17-5.14-2.28-8.42-.1-3.24.33-7.01,1.26-11.2,1.27-4.61,2.95-8.48,4.99-11.55,2.07-3.13,4.75-5.62,7.99-7.4,3.2-1.75,7.06-3.06,11.48-3.91,4.43-.83,9.68-1.25,15.63-1.25s11.13.37,15.27,1.09c4.15.73,7.55,1.74,10.11,3.02,2.58,1.28,4.55,2.9,5.86,4.8h0c1.31,1.9,2.01,4.16,2.1,6.72.08,2.44-.22,5.22-.9,8.27-.16.79-.39,1.65-.68,2.55-.14.44-.28.87-.42,1.28-.14.41-.27.81-.39,1.2-.27.83-.62,1.55-1.03,2.14l-.23.33h-.41c-1.65,0-3.52-.02-5.61-.05-1.9-.01-3.87-.04-5.92-.07h-.64c-2.3-.02-4.61-.04-6.98-.04h-6.8c-2.36,0-4.62.02-6.75.03-2.15.03-4.06.05-5.77.05-.42,0-.83,0-1.21,0-.16.77-.26,1.48-.32,2.13-.13,1.53-.03,2.72.31,3.54.3.77.79,1.3,1.5,1.64.76.35,1.74.53,2.9.53.82,0,1.57-.06,2.23-.18.6-.11,1.12-.3,1.55-.56.47-.3.87-.63,1.19-1,.36-.4.64-.88.86-1.46.27-.68.55-1.44.86-2.3l.21-.59.62.07c.79.09,1.84.15,3.13.18.76.02,1.6.03,2.5.04l2.06.03c1.72.03,3.45.03,5.2.03,3.05,0,5.36-.02,7.5-.08,2.29-.04,4.59-.12,6.82-.22l.96-.04-.15.95c-.38,2.36-.92,4.49-1.62,6.33-.71,1.91-1.65,3.62-2.78,5.08-1.14,1.46-2.64,2.75-4.46,3.86-1.85,1.11-4.04,2.04-6.52,2.78-2.52.77-5.57,1.28-9.08,1.54-3.46.27-7.53.39-12.45.39Zm7.41-52.46c-5.85,0-11.01.41-15.34,1.22-4.26.81-7.97,2.07-11.02,3.74-3.01,1.65-5.51,3.97-7.43,6.89-1.95,2.93-3.56,6.65-4.77,11.06-.89,4.03-1.3,7.67-1.21,10.77.1,3.01.79,5.59,2.05,7.66,1.27,2.06,3.25,3.85,5.86,5.32,2.67,1.49,6.09,2.58,10.16,3.23,4.2.66,9.01.99,14.29.99,4.88,0,8.92-.13,12.34-.39,3.4-.25,6.34-.74,8.75-1.47,2.35-.7,4.42-1.58,6.16-2.62,1.65-1,3.01-2.17,4.03-3.48,1.03-1.33,1.89-2.9,2.55-4.66.57-1.49,1.03-3.2,1.38-5.08-1.94.08-3.91.14-5.88.18-2.15.05-4.48.08-7.54.08-1.76,0-3.5,0-5.23-.03l-2.05-.03c-.91-.01-1.75-.03-2.51-.05-1.03-.02-1.91-.07-2.65-.13-.24.65-.45,1.24-.66,1.77-.29.76-.67,1.39-1.15,1.93-.42.49-.93.91-1.55,1.3-.61.37-1.31.62-2.09.77-.76.13-1.58.2-2.51.2-1.39,0-2.6-.23-3.57-.68-1.07-.52-1.84-1.35-2.28-2.48-.43-1.05-.57-2.45-.41-4.26.08-.9.24-1.86.49-2.94l.14-.59.61-.02c2.09-.06,4.65-.02,7.63-.06,2.14-.02,4.4-.03,6.77-.03h6.8c2.37,0,4.69.02,7,.03h.65c2.05.04,4.02.06,5.92.08,1.91.03,3.62.04,5.16.05.23-.4.44-.86.61-1.39.13-.39.26-.8.4-1.21.14-.41.28-.83.42-1.26.27-.84.48-1.64.64-2.39.65-2.93.94-5.58.86-7.89-.07-2.28-.67-4.21-1.82-5.88-1.16-1.68-2.93-3.12-5.27-4.29-2.42-1.21-5.67-2.18-9.68-2.88-4.06-.71-9.11-1.07-15-1.07Zm-5.91,21.86c-.96,0-1.89-.02-2.8-.03-.12,0-.28,0-.43-.02l-.91-.13.27-.88c.26-.86.54-1.62.83-2.28.8-1.84,1.59-3.26,2.42-4.33.89-1.16,1.87-1.94,3-2.38,1.09-.42,2.33-.63,3.69-.63,1.28,0,2.4.16,3.34.48,1.03.36,1.74.93,2.11,1.7.34.71.52,1.66.53,2.81.03,1.12-.11,2.43-.44,4h0c-.07.34-.18.68-.33,1.08l-.2.55-.59-.04c-.12,0-.24,0-.35,0h-.36c-2.53.04-4.88.02-6.83.08h-.1c-.97.02-1.92.03-2.85.03Zm-2.04-1.59c1.56.02,3.18.02,4.87-.01,2.12-.06,4.4-.05,6.94-.08h.22c.03-.12.07-.24.09-.36.3-1.42.43-2.64.41-3.63-.01-.92-.15-1.67-.38-2.16-.18-.38-.59-.68-1.21-.9-.77-.26-1.73-.4-2.83-.4-1.17,0-2.21.18-3.12.53-.85.34-1.61.95-2.33,1.88-.74.96-1.49,2.3-2.22,4-.15.34-.3.72-.44,1.13Z"/>
  </g>
  <g>
    <path class="cls-2" d="m447.84,306.95c0,.62-.08,1.29-.23,2.01s-.34,1.39-.54,2.01c-.77,3.04-1.83,5.73-3.17,8.07-1.34,2.34-3,4.31-4.98,5.91-1.98,1.6-4.38,2.87-7.18,3.82-2.81.95-6.19,1.65-10.16,2.08-3.97.44-8.5.66-13.6.66-5.51,0-10.27-.34-14.29-1s-7.3-1.72-9.85-3.17-4.39-3.33-5.52-5.68c-1.13-2.34-1.71-5.07-1.74-8.19-.03-3.11.48-6.73,1.51-10.85,1.13-4.43,2.68-8.12,4.63-11.08,1.96-2.96,4.51-5.34,7.65-7.15,3.14-1.8,7-3.13,11.59-3.98,4.58-.85,9.96-1.27,16.15-1.27,6.8,0,12.42.37,16.88,1.12,4.45.75,7.96,1.83,10.51,3.24,2.55,1.42,4.18,3.31,4.91,5.68.72,2.37.62,5.25-.31,8.65-.1.41-.23.82-.39,1.24-.15.41-.26.84-.31,1.27-.05.44-.21.89-.46,1.35-2.06-.05-4.27-.1-6.64-.15-2.37-.05-5.02-.08-7.96-.08-2.73,0-5.27.03-7.61.08-2.34.05-4.21.1-5.6.15.05-.21.13-.45.23-.73.1-.28.18-.55.23-.81.31-.98.44-1.88.39-2.7-.05-.82-.27-1.49-.66-2.01-.39-.51-.98-.9-1.78-1.16-.8-.26-1.82-.39-3.05-.39-1.13,0-2.18.18-3.13.54-.95.36-1.78.92-2.47,1.66-.7.75-1.33,1.79-1.89,3.13-.57,1.34-1.11,3.12-1.62,5.33-.46,1.8-.72,3.35-.77,4.63-.05,1.29.05,2.38.31,3.28.26.9.85,1.53,1.78,1.89.93.36,1.96.54,3.09.54,1.24,0,2.25-.13,3.05-.39.8-.26,1.51-.68,2.12-1.27.62-.59,1.13-1.27,1.55-2.05.41-.77.77-1.59,1.08-2.47.05-.36.12-.67.19-.93.08-.26.12-.57.12-.93,2.06.05,4.11.13,6.14.23,2.03.1,4.34.15,6.91.15,1.6,0,3.23-.02,4.91-.08,1.67-.05,3.31-.1,4.91-.15,1.6-.05,3.3-.08,5.1-.08Z"/>
    <path class="cls-2" d="m407.98,332.29c-5.53,0-10.38-.34-14.42-1.01-4.09-.68-7.49-1.78-10.11-3.26-2.68-1.52-4.65-3.54-5.84-6.02-1.18-2.44-1.79-5.3-1.82-8.52-.03-3.16.49-6.88,1.53-11.05,1.15-4.49,2.74-8.3,4.74-11.33,2.01-3.05,4.68-5.54,7.91-7.39,3.21-1.84,7.19-3.21,11.83-4.07,4.61-.85,10.09-1.29,16.29-1.29,6.8,0,12.52.38,17.01,1.13,4.52.76,8.14,1.88,10.76,3.33,2.72,1.51,4.5,3.58,5.28,6.13.76,2.5.66,5.56-.3,9.09-.11.42-.24.87-.41,1.31-.13.36-.22.72-.26,1.09-.06.54-.25,1.09-.56,1.64l-.23.42h-.47c-2.06-.07-4.27-.12-6.64-.17-2.46-.05-5.13-.08-7.94-.08-2.6,0-5.16.03-7.59.08-2.34.05-4.2.1-5.59.16l-1.04.04.25-1.01c.06-.23.14-.5.26-.82.09-.24.15-.47.2-.7.3-.96.42-1.77.37-2.5-.04-.66-.21-1.2-.5-1.59-.28-.38-.75-.68-1.39-.88-.72-.23-1.66-.35-2.81-.35-1.03,0-1.99.16-2.85.49-.83.32-1.57.81-2.18,1.46-.63.68-1.22,1.65-1.75,2.9-.55,1.29-1.08,3.04-1.58,5.2-.45,1.76-.7,3.26-.75,4.49-.05,1.2.05,2.22.28,3.04.19.67.61,1.11,1.31,1.38.83.32,1.77.49,2.81.49,1.15,0,2.1-.12,2.81-.35.68-.22,1.29-.59,1.82-1.09.55-.53,1.02-1.15,1.4-1.85.38-.72.72-1.49,1.01-2.29.05-.36.12-.68.21-.96.06-.18.08-.42.08-.7v-.8l.8.02c2.03.05,4.1.13,6.16.23,2.01.1,4.32.15,6.87.15,1.59,0,3.23-.03,4.88-.08,1.67-.05,3.31-.1,4.91-.15,1.6-.05,3.32-.08,5.12-.08h.78v.78c0,.67-.08,1.4-.25,2.17-.16.74-.35,1.45-.56,2.09-.77,3.04-1.86,5.82-3.23,8.21-1.38,2.42-3.12,4.48-5.17,6.13-2.04,1.65-4.54,2.98-7.42,3.96-2.84.96-6.31,1.68-10.32,2.12-3.98.44-8.58.66-13.68.66Zm10.12-52.37c-6.1,0-11.48.42-16,1.26-4.47.83-8.29,2.14-11.34,3.89-3.02,1.73-5.51,4.05-7.38,6.9-1.9,2.88-3.42,6.52-4.53,10.85-1.01,4.03-1.51,7.62-1.48,10.65.02,2.99.58,5.63,1.66,7.85,1.05,2.19,2.81,3.98,5.2,5.34,2.46,1.39,5.68,2.42,9.59,3.08,3.96.66,8.72.99,14.16.99,5.04,0,9.59-.22,13.51-.65,3.9-.43,7.26-1.12,9.99-2.05,2.71-.92,5.05-2.16,6.94-3.69,1.9-1.53,3.51-3.44,4.79-5.69,1.3-2.27,2.34-4.92,3.09-7.88.21-.65.39-1.29.54-1.98.08-.37.13-.72.17-1.06-1.49,0-2.91.03-4.25.07-1.6.05-3.23.1-4.91.15-1.66.05-3.32.08-4.93.08-2.58,0-4.92-.05-6.95-.15-1.8-.09-3.6-.16-5.39-.21-.02.12-.05.24-.08.35-.07.22-.12.5-.17.81l-.04.15c-.32.9-.7,1.77-1.13,2.58-.45.85-1.02,1.6-1.69,2.25-.7.67-1.52,1.16-2.43,1.45-.88.29-1.96.42-3.29.42-1.23,0-2.36-.2-3.37-.59-1.15-.44-1.92-1.28-2.25-2.41-.28-.97-.39-2.16-.34-3.53.05-1.33.32-2.95.8-4.8.52-2.23,1.08-4.06,1.66-5.44.6-1.42,1.29-2.54,2.04-3.36.78-.83,1.71-1.46,2.77-1.86,1.04-.39,2.19-.59,3.41-.59,1.33,0,2.41.14,3.29.42.95.31,1.68.79,2.16,1.43.48.64.75,1.46.81,2.43.06.92-.08,1.92-.42,2.99-.02.13-.07.3-.12.49,1.23-.04,2.73-.08,4.5-.12,2.45-.05,5.01-.08,7.63-.08,2.82,0,5.5.03,7.97.08,2.18.05,4.22.09,6.14.14.09-.22.15-.44.17-.65.06-.49.18-.98.35-1.46.14-.38.27-.77.36-1.15.89-3.25.99-6.02.32-8.23-.67-2.19-2.15-3.89-4.54-5.22-2.46-1.37-5.91-2.43-10.25-3.16-4.4-.74-10.03-1.11-16.75-1.11Z"/>
  </g>
  <g>
    <path class="cls-2" d="m516.21,280.69c-.42,2.01-.92,4.06-1.5,6.18-.6,2.12-1.22,4.23-1.87,6.38-.64,2.13-1.19,4.23-1.66,6.28-.92,0-2.38-.02-4.36-.08-1.99-.05-4.23-.08-6.72-.11-2.49-.03-5.2-.03-8.1-.03-1.69,0-3.39-.02-5.11-.05-.41,1.63-.85,3.29-1.27,4.98-.2,1.19-.13,2.15.24,2.9s1.19,1.24,2.51,1.47c1.32.22,3.12.34,5.44.34,3.09,0,5.85-.11,8.28-.31,2.41-.2,4.69-.61,6.79-1.24-.25,1.39-.52,2.79-.8,4.22-.28,1.41-.56,2.84-.86,4.28-.28,1.44-.52,2.92-.72,4.4-.22,1.5-.36,2.96-.47,4.4-.11,1.44-.25,2.85-.45,4.25-2.32.36-4.76.69-7.3.97-2.55.28-5.2.52-7.96.69-2.76.19-5.6.27-8.54.27-5.05,0-9.25-.34-12.62-1.03-3.39-.69-6.13-1.71-8.23-3.06-2.12-1.33-3.71-2.93-4.8-4.78-1.08-1.87-1.68-3.97-1.77-6.33-.11-2.38.2-4.91.92-7.57.25-1.24.64-2.81,1.16-4.69.41-1.47.83-2.99,1.27-4.59-1.91,0-3.5.03-4.75.08.41-1.44.8-2.96,1.16-4.56.36-1.6.75-3.2,1.19-4.83.44-1.61.82-3.2,1.13-4.75.31-1.55.6-2.93.85-4.17,1.69.03,3.46.05,5.33.06.25-.99.49-1.97.74-2.93.53-2.15.99-4.11,1.35-5.86,2.43.05,4.87.11,7.38.16,2.49.05,5.03.08,7.6.08,1.6,0,3.31-.02,5.11-.05,1.8-.02,3.54-.05,5.25-.08,1.69-.02,3.24-.06,4.64-.11-.67,2.16-1.36,4.5-2.05,6.99-.17.64-.36,1.29-.55,1.94,2.24,0,4.44-.02,6.61-.05,3.45-.06,6.66-.06,9.65-.05,2.99.03,5.61.02,7.88-.03Z"/>
    <path class="cls-2" d="m481.75,331.67c-5.07,0-9.37-.35-12.77-1.05-3.46-.71-6.32-1.77-8.5-3.17-2.2-1.39-3.9-3.08-5.05-5.04-1.15-1.98-1.78-4.23-1.88-6.7-.11-2.43.21-5.06.95-7.81.23-1.15.61-2.7,1.16-4.69l.23-.83c.25-.9.51-1.82.77-2.77-1.35,0-2.59.03-3.69.07l-1.08.04.29-1.04c.43-1.51.81-3.03,1.15-4.52.38-1.69.77-3.28,1.2-4.86.43-1.59.81-3.17,1.12-4.7l.98-4.81h.65c1.5.04,3.07.06,4.7.07l.13-.53c.15-.61.3-1.21.46-1.81.55-2.24.99-4.14,1.34-5.82l.13-.64h.65c1.17.04,2.34.06,3.52.09,1.27.03,2.56.06,3.86.08,2.79.05,5.27.08,7.59.08,1.59,0,3.3-.02,5.1-.05,1.81-.02,3.54-.05,5.25-.08,1.69-.02,3.24-.06,4.63-.11l1.1-.04-.33,1.05c-.7,2.25-1.39,4.59-2.05,6.97-.08.31-.17.63-.26.95,1.88,0,3.73-.02,5.56-.05,3.7-.07,7.11-.06,9.67-.05,2.8.03,5.45.02,7.86-.03l.99-.02-.2.97c-.42,2-.93,4.09-1.52,6.22-.6,2.12-1.23,4.25-1.87,6.4-.61,2.02-1.16,4.12-1.65,6.23l-.14.61h-.62c-.87,0-2.33-.01-4.38-.08-1.98-.05-4.22-.08-6.71-.11-3.77-.05-8.14,0-12.59-.07-.15.61-.31,1.22-.47,1.83-.22.84-.43,1.69-.65,2.55-.16.96-.11,1.77.18,2.37.24.5.89.86,1.94,1.04,1.32.22,3.11.33,5.3.33,2.98,0,5.74-.11,8.21-.31,2.39-.2,4.62-.61,6.63-1.21l1.22-.36-.23,1.25c-.25,1.4-.52,2.8-.8,4.23l-.18.88c-.22,1.12-.45,2.26-.69,3.41-.26,1.34-.49,2.76-.71,4.35-.19,1.32-.34,2.7-.46,4.36-.13,1.65-.27,3.01-.46,4.3l-.08.57-.57.09c-2.41.37-4.88.7-7.34.98-2.68.29-5.37.53-8,.69-2.64.18-5.45.27-8.59.27Zm-24.06-33.62h1.03l-.27.99c-.36,1.3-.7,2.55-1.04,3.77l-.23.82c-.54,1.95-.91,3.47-1.15,4.63-.71,2.64-1.02,5.1-.91,7.38.09,2.24.63,4.19,1.67,5.97,1.02,1.74,2.54,3.26,4.54,4.51,2.01,1.29,4.69,2.29,7.97,2.95,3.3.68,7.5,1.02,12.46,1.02,3.1,0,5.88-.09,8.49-.27,2.61-.16,5.28-.39,7.93-.69,2.24-.25,4.49-.54,6.69-.88.15-1.09.26-2.25.37-3.62.13-1.69.28-3.11.48-4.46.22-1.61.46-3.07.73-4.44.24-1.15.46-2.28.69-3.4l.18-.88c.2-1,.39-1.99.57-2.98-1.78.45-3.7.76-5.73.93-2.51.21-5.32.32-8.34.32-2.28,0-4.15-.12-5.57-.36-1.58-.28-2.61-.92-3.08-1.91-.44-.91-.53-2.01-.3-3.37.23-.92.45-1.77.66-2.61.21-.82.42-1.63.62-2.43l.15-.6h.62c4.67.1,9.26.04,13.21.09,2.5.03,4.74.06,6.73.11,1.61.05,2.84.07,3.72.08.46-1.94.97-3.87,1.53-5.73.64-2.14,1.27-4.25,1.86-6.37.48-1.76.91-3.49,1.28-5.16-2.16.03-4.48.04-6.92.01-2.55-.01-5.95-.02-9.63.05-2.19.03-4.38.05-6.63.05h-1.04l.4-1.4c.15-.52.29-1.03.43-1.54.56-2.03,1.14-4.03,1.74-5.97-1.1.03-2.29.06-3.56.07-1.7.03-3.45.06-5.25.08-1.8.03-3.51.05-5.12.05-2.33,0-4.82-.03-7.62-.08-1.3-.02-2.59-.05-3.87-.08-.96-.02-1.91-.04-2.86-.06-.33,1.54-.73,3.27-1.22,5.25-.16.6-.3,1.19-.45,1.8l-.44,1.73h-.62c-1.63-.02-3.19-.03-4.68-.06l-.72,3.53c-.32,1.56-.7,3.18-1.14,4.8-.42,1.56-.81,3.13-1.18,4.79-.27,1.18-.56,2.38-.89,3.57,1.13-.03,2.37-.04,3.71-.04Z"/>
  </g>
  <g>
    <path class="cls-2" d="m554.09,293.61c-.16.55-.31,1.1-.45,1.66-.06.22-.13.45-.19.69.39-.81.82-1.57,1.25-2.29l-.61-.06Z"/>
    <path class="cls-2" d="m554.15,296.3l-1.46-.54c.06-.24.13-.48.19-.7.13-.53.28-1.06.44-1.6l.18-.63h.67s1.85.19,1.85.19l-.64,1.06c-.49.8-.88,1.51-1.22,2.22Z"/>
  </g>
  <g>
    <path class="cls-2" d="m580.41,282.56c-.63,2.12-1.3,4.22-2.05,6.33-.75,2.12-1.41,4.25-2.01,6.41-.6,2.16-1.19,4.33-1.82,6.49-.61,2.16-1.24,4.51-1.85,7.04-.92-.31-1.93-.56-3.01-.74-1.08-.19-2.24-.28-3.48-.28-1.39,0-2.65.16-3.79.47-1.13.31-2.1.78-2.88,1.43-.8.64-1.5,1.55-2.1,2.71-.58,1.16-1.03,2.51-1.35,4.04-.25,1.35-.55,2.68-.88,4.03-.34,1.33-.69,2.68-1.05,4.01-.36,1.35-.66,2.65-.89,3.93-.22,1.3-.42,2.51-.58,3.64h-32.6c1.03-3.45,2.07-7.16,3.1-11.13,1.02-3.97,2.18-8.62,3.46-13.98,1.35-5.2,2.49-9.7,3.45-13.51.94-3.81,1.68-7.48,2.19-10.97h25.26c-.67,2.16-1.35,4.28-2.01,6.33-.5,1.54-.99,3.13-1.44,4.8-.16.55-.31,1.1-.45,1.66-.06.22-.13.45-.19.69.39-.81.82-1.57,1.25-2.29.14-.25.28-.49.44-.72,1.69-2.66,3.56-4.8,5.56-6.41,2.01-1.63,4.14-2.82,6.41-3.6,2.27-.77,4.64-1.16,7.1-1.16,1.3,0,2.43.08,3.4.24.99.16,1.91.34,2.79.55Z"/>
    <path class="cls-2" d="m553.35,332.85h-34.34l.3-1.01c1.01-3.38,2.06-7.11,3.1-11.1,1.12-4.34,2.28-9.04,3.46-13.96,1.35-5.22,2.49-9.71,3.45-13.52.94-3.8,1.67-7.46,2.18-10.9l.1-.67h27l-.32,1.02c-.67,2.17-1.35,4.28-2.01,6.34-.17.53-.34,1.06-.5,1.58,1.37-1.85,2.86-3.43,4.44-4.71,2.05-1.66,4.28-2.92,6.65-3.73,2.36-.8,4.84-1.2,7.36-1.2,1.35,0,2.5.08,3.53.25.93.15,1.86.33,2.84.56l.81.19-.24.8c-.67,2.27-1.35,4.35-2.07,6.37-.71,2-1.36,4.08-1.99,6.36-.6,2.17-1.19,4.33-1.82,6.5-.68,2.39-1.28,4.68-1.84,7l-.2.83-.81-.28c-.91-.31-1.88-.54-2.88-.71-1.05-.18-2.17-.27-3.36-.27-1.33,0-2.5.15-3.59.44-1.04.29-1.91.72-2.59,1.28-.72.58-1.36,1.41-1.9,2.46-.55,1.1-.98,2.4-1.28,3.84-.23,1.22-.52,2.55-.88,4.06l-.16.61c-.29,1.14-.59,2.29-.9,3.43-.36,1.36-.65,2.63-.88,3.87l-.02.11c-.21,1.25-.4,2.41-.55,3.49l-.09.68Zm-32.23-1.57h30.87c.13-.9.29-1.85.46-2.86l.02-.12c.24-1.3.53-2.6.91-4.01.31-1.13.6-2.28.89-3.41l.15-.6c.36-1.46.64-2.77.87-3.97.32-1.59.8-3.02,1.42-4.25.65-1.26,1.42-2.26,2.31-2.97.84-.69,1.91-1.22,3.17-1.57,1.23-.34,2.54-.5,4-.5,1.27,0,2.49.1,3.61.29.79.13,1.57.3,2.31.51.51-2.06,1.05-4.12,1.66-6.25.63-2.17,1.22-4.32,1.82-6.48.64-2.31,1.3-4.42,2.02-6.46.62-1.75,1.21-3.55,1.8-5.49-.65-.14-1.29-.26-1.92-.36-.93-.15-2.03-.23-3.28-.23-2.35,0-4.65.38-6.85,1.12-2.18.75-4.26,1.92-6.17,3.47-1.96,1.58-3.78,3.67-5.4,6.22-.15.23-.29.45-.42.69-.5.82-.89,1.53-1.23,2.24l-1.46-.54c.06-.24.13-.48.19-.7.13-.53.28-1.06.44-1.6.45-1.63.94-3.26,1.47-4.89.55-1.73,1.12-3.5,1.68-5.31h-23.52c-.51,3.29-1.22,6.77-2.11,10.38-.96,3.81-2.1,8.31-3.45,13.52-1.18,4.92-2.34,9.62-3.46,13.98-.94,3.62-1.89,7.02-2.81,10.15Z"/>
  </g>
  <g>
    <path class="cls-1" d="m305.64,276.86c-.78,1.8-1.9,3.9-3.37,6.28-1.47,2.4-2.96,4.98-4.48,7.77-1.52,2.77-3.1,5.6-4.75,8.46-1.65,2.85-3.23,5.66-4.75,8.42-1.52,2.76-2.93,5.34-4.25,7.76-1.32,2.43-2.48,4.59-3.48,6.49-1,1.91-1.83,3.37-2.51,4.4-2.52,0-5.5-.02-8.92-.03-3.43-.03-7.49-.05-12.18-.05h-17.68c-2.23,0-3.81.03-4.8.08,0-1.18-.11-2.9-.31-5.14s-.42-4.84-.66-7.84c-.22-2.98-.47-6.16-.72-9.5-.27-3.35-.5-6.69-.74-10.05-.24-3.35-.5-6.52-.81-9.5-.31-2.99-.61-5.52-.92-7.57h31.28c-.46,3.03-1.94,22.93-2.55,33.05-.02.22-.02.42-.03.63h.94c.47-1.03.96-2.13,1.46-3.29,1.25-2.9,2.63-5.92,4.12-9.07.88-2.21,1.79-4.39,2.71-6.52.92-2.15,1.8-4.18,2.63-6.14.82-1.96,1.52-3.67,2.12-5.14s1.02-2.63,1.27-3.51h31.38Z"/>
    <path class="cls-2" d="m233.7,327.27v-.82c0-1.12-.1-2.78-.31-5.07-.2-2.24-.42-4.85-.66-7.85-.12-1.68-.26-3.43-.4-5.23l-.32-4.27c-.27-3.35-.5-6.69-.74-10.05-.25-3.52-.51-6.62-.81-9.47-.34-3.27-.64-5.67-.92-7.53l-.14-.9h33.11l-.14.9c-.44,2.93-1.83,21.53-2.47,31.77.26-.58.52-1.18.79-1.8,1.21-2.79,2.56-5.77,4.13-9.1.83-2.09,1.75-4.29,2.7-6.5.94-2.19,1.81-4.2,2.63-6.14.81-1.95,1.52-3.66,2.11-5.13.6-1.48,1.01-2.61,1.24-3.43l.16-.57h33.16l-.48,1.1c-.83,1.9-1.98,4.05-3.42,6.38-1.43,2.33-2.94,4.94-4.46,7.74-1.51,2.76-3.11,5.61-4.76,8.48-1.64,2.85-3.24,5.68-4.74,8.4-1.51,2.75-2.92,5.32-4.23,7.73-1.33,2.45-2.49,4.61-3.49,6.51-1.02,1.94-1.85,3.4-2.54,4.46l-.23.36h-.42c-2.19,0-4.73-.01-7.6-.02h-1.32c-3.43-.04-7.49-.05-12.17-.05h-17.68c-2.59,0-4.02.04-4.76.08l-.82.04Zm5.58-1.68h17.68c4.69,0,8.75.02,12.19.05h1.32c2.68.02,5.07.03,7.16.03.62-.99,1.37-2.32,2.24-3.98,1.01-1.9,2.17-4.07,3.48-6.5,1.33-2.44,2.73-5.01,4.25-7.76,1.51-2.74,3.11-5.57,4.76-8.43,1.64-2.86,3.23-5.7,4.74-8.45,1.54-2.82,3.05-5.45,4.5-7.81,1.13-1.83,2.08-3.54,2.82-5.09h-29.58c-.26.8-.63,1.8-1.12,3.02-.6,1.48-1.3,3.19-2.12,5.15-.82,1.94-1.69,3.95-2.6,6.07-.98,2.27-1.89,4.45-2.74,6.58-1.58,3.36-2.93,6.32-4.13,9.1-.5,1.16-.99,2.27-1.46,3.3l-.21.46h-2.29l.06-.84c0-.09.01-.19.01-.28,0-.11,0-.22.02-.34.56-9.22,1.89-27.24,2.45-32.22h-29.49c.25,1.75.5,3.91.8,6.7.3,2.87.57,5.99.82,9.52.24,3.35.47,6.69.74,10.04l.33,4.27c.14,1.8.27,3.55.4,5.23.23,2.99.45,5.58.66,7.82.17,1.85.27,3.3.3,4.4,1.04-.03,2.41-.05,4.03-.05Z"/>
  </g>
  <g>
    <path class="cls-1" d="m369.45,283.88c-1.24-1.8-3.1-3.32-5.56-4.55-2.48-1.24-5.77-2.23-9.89-2.95-4.12-.72-9.17-1.08-15.14-1.08s-11.14.42-15.48,1.24c-4.36.83-8.1,2.1-11.25,3.82-3.13,1.72-5.7,4.11-7.71,7.15-2.02,3.04-3.64,6.8-4.87,11.28-.92,4.17-1.33,7.84-1.24,11,.11,3.17.83,5.85,2.16,8.04,1.35,2.18,3.39,4.04,6.14,5.6,2.76,1.54,6.24,2.65,10.42,3.32,4.2.66,9.01,1,14.42,1,4.78,0,8.92-.13,12.4-.39,3.48-.25,6.44-.75,8.92-1.5,2.48-.74,4.58-1.65,6.33-2.7,1.76-1.07,3.17-2.29,4.25-3.67,1.08-1.39,1.97-3.02,2.66-4.87.71-1.85,1.22-3.92,1.58-6.18-2.05.09-4.33.17-6.83.22-2.49.06-5,.08-7.52.08-1.76,0-3.5,0-5.22-.03-1.72-.03-3.24-.05-4.56-.08-1.32-.03-2.38-.09-3.2-.19-.31.88-.6,1.65-.86,2.32-.25.66-.58,1.22-1,1.69-.41.47-.88.85-1.38,1.16-.52.31-1.13.53-1.82.66-.71.13-1.49.19-2.37.19-1.29,0-2.37-.2-3.24-.61-.88-.42-1.5-1.1-1.88-2.05-.39-.96-.5-2.26-.36-3.9.08-.86.24-1.8.47-2.84.58-.02,1.19-.02,1.85-.02,1.71,0,3.62-.02,5.77-.05,2.13-.02,4.39-.03,6.76-.03h6.8c2.37,0,4.69.02,6.99.03,2.29.03,4.47.06,6.57.08,2.08.03,3.95.05,5.6.05.36-.52.67-1.16.92-1.93.25-.78.53-1.6.81-2.48.28-.88.5-1.71.66-2.48.66-2.98.96-5.67.88-8.07-.08-2.4-.72-4.5-1.96-6.3Zm-25.66,12.21c-.08.34-.19.67-.3.97-.22-.02-.42,0-.63,0-1.29.02-2.52.03-3.7.03s-2.29.02-3.29.05c-1,.02-1.97.03-2.93.03s-1.88-.02-2.79-.03c-.11,0-.22,0-.33-.02.25-.82.52-1.55.8-2.19.75-1.74,1.52-3.13,2.32-4.17.8-1.03,1.68-1.74,2.66-2.13.97-.38,2.12-.58,3.4-.58s2.26.16,3.09.44c.82.28,1.38.72,1.66,1.3.28.6.44,1.43.45,2.48.03,1.07-.11,2.34-.42,3.82Z"/>
    <path class="cls-2" d="m331.44,328.55c-5.36,0-10.25-.34-14.54-1.01-4.25-.69-7.85-1.83-10.68-3.41-2.85-1.6-5.01-3.58-6.43-5.87-1.4-2.3-2.17-5.14-2.28-8.42-.1-3.24.33-7.01,1.26-11.2,1.27-4.61,2.95-8.48,4.99-11.55,2.07-3.13,4.75-5.62,7.99-7.4,3.2-1.75,7.06-3.06,11.48-3.91,4.43-.83,9.69-1.25,15.63-1.25s11.13.37,15.28,1.09c4.15.73,7.55,1.74,10.1,3.02,2.58,1.28,4.55,2.9,5.86,4.8h0c1.31,1.9,2.01,4.16,2.1,6.72.08,2.44-.22,5.22-.9,8.27-.16.8-.39,1.66-.68,2.55-.14.45-.29.88-.43,1.29-.13.4-.27.8-.39,1.18-.27.83-.62,1.54-1.03,2.14l-.23.33h-.41c-1.65,0-3.52-.02-5.61-.05-1.9-.01-3.87-.04-5.92-.07h-.64c-2.3-.02-4.61-.04-6.98-.04h-6.8c-2.36,0-4.62.02-6.75.03-2.16.03-4.13.05-5.8.05-.41,0-.81,0-1.19,0-.16.77-.26,1.48-.32,2.13-.13,1.53-.03,2.72.31,3.54.3.77.79,1.3,1.5,1.64.76.35,1.74.53,2.9.53.84,0,1.56-.06,2.23-.18.6-.11,1.12-.3,1.55-.56.47-.3.87-.63,1.19-1,.36-.4.64-.88.86-1.46.27-.68.55-1.44.86-2.3l.21-.59.62.07c.79.09,1.85.15,3.13.18.79.02,1.65.03,2.58.05l1.98.03c1.72.03,3.45.03,5.21.03,3.04,0,5.36-.02,7.5-.08,2.3-.04,4.53-.12,6.82-.22l.96-.04-.15.95c-.38,2.37-.92,4.5-1.62,6.33-.71,1.91-1.65,3.62-2.78,5.08-1.14,1.46-2.64,2.75-4.46,3.86-1.85,1.11-4.04,2.04-6.52,2.78-2.52.77-5.58,1.28-9.09,1.53-3.46.27-7.54.39-12.45.39Zm7.41-52.46c-5.85,0-11.01.41-15.34,1.22-4.26.81-7.97,2.07-11.02,3.74-3.01,1.65-5.51,3.97-7.43,6.89-1.95,2.93-3.56,6.65-4.77,11.06-.89,4.03-1.3,7.66-1.21,10.77.1,3.01.79,5.59,2.05,7.66,1.27,2.06,3.25,3.85,5.86,5.32,2.67,1.49,6.09,2.58,10.16,3.23,4.21.66,9.02.99,14.29.99,4.81,0,8.96-.13,12.34-.39,3.39-.24,6.33-.74,8.75-1.47,2.35-.7,4.42-1.58,6.16-2.62,1.65-1,3.01-2.17,4.03-3.48,1.03-1.33,1.89-2.9,2.55-4.67.57-1.49,1.03-3.2,1.38-5.08-1.96.08-3.9.14-5.88.18-2.16.05-4.48.08-7.54.08-1.76,0-3.5,0-5.23-.03l-1.97-.03c-.94-.01-1.8-.03-2.59-.05-1.02-.02-1.91-.07-2.65-.13-.24.65-.46,1.24-.66,1.77-.29.76-.67,1.39-1.15,1.93-.42.49-.93.91-1.55,1.3-.6.37-1.31.62-2.09.77-.76.13-1.58.2-2.51.2-1.39,0-2.6-.23-3.57-.68-1.07-.52-1.84-1.35-2.28-2.48-.43-1.05-.57-2.45-.41-4.26.08-.9.24-1.86.49-2.94l.13-.59.61-.02c2.09-.06,4.65-.02,7.63-.06,2.14-.02,4.4-.03,6.77-.03h6.8c2.37,0,4.69.02,7,.03h.65c2.05.04,4.02.06,5.92.08,1.91.03,3.63.04,5.16.05.23-.4.44-.86.61-1.39.12-.39.26-.78.39-1.19.14-.41.28-.84.42-1.28.27-.83.48-1.64.64-2.39.65-2.93.94-5.58.86-7.89-.07-2.28-.67-4.21-1.82-5.88h0c-1.16-1.68-2.93-3.13-5.27-4.29-2.42-1.21-5.67-2.18-9.68-2.88-4.06-.71-9.11-1.07-15.01-1.07Zm-5.91,21.86c-.96,0-1.89-.02-2.8-.03-.12,0-.28,0-.43-.02l-.91-.13.27-.88c.27-.86.54-1.63.83-2.28.8-1.84,1.59-3.26,2.42-4.33.89-1.16,1.87-1.94,3-2.38,1.09-.42,2.33-.64,3.69-.64,1.28,0,2.4.16,3.34.48,1.03.36,1.74.93,2.11,1.7.34.71.52,1.66.53,2.81.03,1.12-.11,2.43-.44,4h0c-.07.34-.18.68-.33,1.08l-.2.55-.59-.04c-.12,0-.24,0-.35,0h-.35c-2.53.04-4.88.02-6.83.08h-.1c-.97.02-1.92.03-2.85.03Zm-2.04-1.59c1.57.03,3.18.02,4.87-.01,2.12-.06,4.4-.05,6.94-.08h.22c.03-.12.07-.24.09-.36.3-1.42.43-2.64.41-3.63-.01-.92-.15-1.67-.38-2.17-.18-.38-.59-.68-1.21-.9-.77-.26-1.73-.4-2.83-.4-1.17,0-2.21.18-3.12.53-.85.34-1.61.95-2.33,1.88-.74.96-1.49,2.3-2.22,4-.15.34-.3.72-.44,1.13Z"/>
  </g>
  <g>
    <path class="cls-1" d="m444.06,303.2c0,.62-.08,1.29-.23,2.01s-.34,1.39-.54,2.01c-.77,3.04-1.83,5.73-3.17,8.07-1.34,2.34-3,4.31-4.98,5.91-1.98,1.6-4.38,2.87-7.18,3.82-2.81.95-6.19,1.65-10.16,2.08-3.97.44-8.5.66-13.6.66-5.51,0-10.27-.34-14.29-1s-7.3-1.72-9.85-3.17-4.39-3.33-5.52-5.68c-1.13-2.34-1.71-5.07-1.74-8.19-.03-3.11.48-6.73,1.51-10.85,1.13-4.43,2.68-8.12,4.63-11.08,1.96-2.96,4.51-5.34,7.65-7.15,3.14-1.8,7-3.13,11.59-3.98,4.58-.85,9.96-1.27,16.15-1.27,6.8,0,12.42.37,16.88,1.12,4.45.75,7.96,1.83,10.51,3.24,2.55,1.42,4.18,3.31,4.91,5.68.72,2.37.62,5.25-.31,8.65-.1.41-.23.82-.39,1.24-.15.41-.26.84-.31,1.27-.05.44-.21.89-.46,1.35-2.06-.05-4.27-.1-6.64-.15-2.37-.05-5.02-.08-7.96-.08-2.73,0-5.27.03-7.61.08-2.34.05-4.21.1-5.6.15.05-.21.13-.45.23-.73.1-.28.18-.55.23-.81.31-.98.44-1.88.39-2.7-.05-.82-.27-1.49-.66-2.01-.39-.51-.98-.9-1.78-1.16-.8-.26-1.82-.39-3.05-.39-1.13,0-2.18.18-3.13.54-.95.36-1.78.92-2.47,1.66-.7.75-1.33,1.79-1.89,3.13-.57,1.34-1.11,3.12-1.62,5.33-.46,1.8-.72,3.35-.77,4.63-.05,1.29.05,2.38.31,3.28.26.9.85,1.53,1.78,1.89.93.36,1.96.54,3.09.54,1.24,0,2.25-.13,3.05-.39.8-.26,1.51-.68,2.12-1.27.62-.59,1.13-1.27,1.55-2.05.41-.77.77-1.59,1.08-2.47.05-.36.12-.67.19-.93.08-.26.12-.57.12-.93,2.06.05,4.11.13,6.14.23,2.03.1,4.34.15,6.91.15,1.6,0,3.23-.02,4.91-.08,1.67-.05,3.31-.1,4.91-.15,1.6-.05,3.3-.08,5.1-.08Z"/>
    <path class="cls-2" d="m404.2,328.55c-5.53,0-10.38-.34-14.42-1.01-4.09-.68-7.49-1.78-10.11-3.26-2.68-1.52-4.65-3.54-5.84-6.02-1.18-2.44-1.79-5.3-1.82-8.52-.03-3.17.49-6.88,1.53-11.05,1.15-4.5,2.74-8.31,4.74-11.33,2.02-3.05,4.68-5.54,7.91-7.39,3.2-1.84,7.19-3.21,11.83-4.07,4.61-.85,10.09-1.29,16.29-1.29,6.8,0,12.52.38,17.01,1.13,4.52.76,8.14,1.88,10.76,3.33,2.72,1.51,4.49,3.58,5.27,6.13.76,2.5.66,5.56-.3,9.09-.1.42-.24.86-.41,1.31-.13.36-.22.72-.26,1.09-.06.54-.25,1.09-.56,1.64l-.23.42h-.47c-2.06-.06-4.27-.11-6.64-.17-2.44-.05-5.11-.08-7.94-.08-2.63,0-5.18.03-7.59.08-2.34.05-4.2.1-5.59.15l-1.04.04.25-1.01c.06-.23.14-.5.26-.82.09-.24.15-.47.2-.69.3-.96.42-1.77.37-2.5-.04-.66-.21-1.2-.5-1.59-.28-.38-.75-.68-1.39-.88-.72-.23-1.66-.35-2.81-.35-1.03,0-1.99.16-2.85.49-.83.32-1.57.81-2.18,1.46-.63.68-1.22,1.65-1.75,2.9-.55,1.29-1.08,3.04-1.58,5.2-.45,1.76-.7,3.26-.75,4.49-.05,1.2.05,2.22.28,3.04.19.67.61,1.11,1.31,1.38.83.32,1.77.49,2.81.49,1.15,0,2.09-.12,2.81-.35.68-.22,1.29-.59,1.82-1.09.55-.53,1.02-1.15,1.4-1.85.38-.72.72-1.49,1.01-2.29.05-.36.12-.68.21-.96.05-.18.08-.42.08-.7v-.8l.8.02c2.03.05,4.1.13,6.16.23,2.01.1,4.32.15,6.88.15,1.62,0,3.26-.03,4.88-.08,1.67-.05,3.31-.1,4.9-.15,1.6-.05,3.32-.08,5.12-.08h.78v.78c0,.67-.08,1.4-.25,2.17-.16.74-.35,1.45-.56,2.09-.77,3.04-1.86,5.82-3.23,8.21-1.38,2.42-3.12,4.48-5.17,6.13-2.04,1.65-4.54,2.98-7.42,3.96-2.84.97-6.31,1.68-10.32,2.12-3.98.44-8.58.66-13.68.66Zm10.12-52.37c-6.1,0-11.49.42-16,1.26-4.47.83-8.29,2.14-11.34,3.89-3.02,1.73-5.5,4.05-7.38,6.9-1.9,2.88-3.42,6.52-4.53,10.85-1.01,4.03-1.51,7.62-1.48,10.65.02,2.99.58,5.63,1.66,7.85,1.06,2.19,2.81,3.98,5.2,5.34,2.46,1.39,5.69,2.43,9.59,3.08,3.96.66,8.72.99,14.16.99,5.04,0,9.59-.22,13.51-.65,3.9-.43,7.26-1.12,9.99-2.05,2.71-.92,5.04-2.16,6.94-3.69,1.9-1.52,3.51-3.44,4.79-5.69,1.3-2.27,2.34-4.92,3.09-7.88.21-.65.39-1.29.53-1.98.08-.37.14-.72.17-1.06-1.49,0-2.91.03-4.25.07-1.6.05-3.23.1-4.91.15-1.63.05-3.29.08-4.93.08-2.58,0-4.92-.05-6.95-.15-1.8-.09-3.6-.16-5.38-.21-.02.12-.05.24-.08.35-.07.22-.12.5-.17.81l-.04.15c-.32.9-.7,1.77-1.13,2.58-.45.85-1.02,1.6-1.7,2.25-.7.67-1.51,1.16-2.42,1.46-.88.28-1.98.42-3.29.42-1.23,0-2.36-.2-3.37-.59-1.15-.44-1.92-1.28-2.25-2.41-.28-.98-.39-2.17-.34-3.53.05-1.33.32-2.95.8-4.8.52-2.23,1.08-4.07,1.66-5.44.6-1.41,1.29-2.54,2.04-3.36.78-.83,1.71-1.46,2.77-1.86,1.04-.39,2.18-.59,3.41-.59,1.31,0,2.42.14,3.29.42.95.31,1.68.79,2.16,1.43.48.64.75,1.46.81,2.43.06.92-.09,1.93-.42,2.99-.02.13-.07.3-.12.49,1.23-.04,2.73-.08,4.5-.12,2.42-.05,4.99-.08,7.63-.08,2.84,0,5.53.03,7.97.08,2.18.05,4.22.09,6.14.14.09-.22.15-.44.17-.65.06-.49.17-.98.35-1.46.14-.39.26-.77.36-1.15.89-3.26.99-6.02.32-8.24-.67-2.19-2.15-3.89-4.54-5.22-2.46-1.37-5.91-2.43-10.25-3.16-4.4-.74-10.04-1.11-16.75-1.11Z"/>
  </g>
  <g>
    <path class="cls-1" d="m512.43,276.94c-.42,2.01-.92,4.06-1.5,6.18-.6,2.12-1.22,4.23-1.87,6.38-.64,2.13-1.19,4.23-1.66,6.28-.92,0-2.38-.02-4.36-.08-1.99-.05-4.23-.08-6.72-.11-2.49-.03-5.2-.03-8.1-.03-1.69,0-3.39-.02-5.11-.05-.41,1.63-.85,3.29-1.27,4.98-.2,1.19-.13,2.15.24,2.9s1.19,1.24,2.51,1.47c1.32.22,3.12.34,5.44.34,3.09,0,5.85-.11,8.28-.31,2.41-.2,4.69-.61,6.79-1.24-.25,1.39-.52,2.79-.8,4.22-.28,1.41-.56,2.84-.86,4.28-.28,1.44-.52,2.92-.72,4.4-.22,1.5-.36,2.96-.47,4.4-.11,1.44-.25,2.85-.45,4.25-2.32.36-4.76.69-7.3.97-2.55.28-5.2.52-7.96.69-2.76.19-5.6.27-8.54.27-5.05,0-9.25-.34-12.62-1.03-3.39-.69-6.13-1.71-8.23-3.06-2.12-1.33-3.71-2.93-4.8-4.78-1.08-1.87-1.68-3.97-1.77-6.33-.11-2.38.2-4.91.92-7.57.25-1.24.64-2.81,1.16-4.69.41-1.47.83-2.99,1.27-4.59-1.91,0-3.5.03-4.75.08.41-1.44.8-2.96,1.16-4.56.36-1.6.75-3.2,1.19-4.83.44-1.61.82-3.2,1.13-4.75.31-1.55.6-2.93.85-4.17,1.69.03,3.46.05,5.33.06.25-.99.49-1.97.74-2.93.53-2.15.99-4.11,1.35-5.86,2.43.05,4.87.11,7.38.16,2.49.05,5.03.08,7.6.08,1.6,0,3.31-.02,5.11-.05,1.8-.02,3.54-.05,5.25-.08,1.69-.02,3.24-.06,4.64-.11-.67,2.16-1.36,4.5-2.05,6.99-.17.64-.36,1.29-.55,1.94,2.24,0,4.44-.02,6.61-.05,3.45-.06,6.66-.06,9.65-.05,2.99.03,5.61.02,7.88-.03Z"/>
    <path class="cls-2" d="m477.97,327.93c-5.07,0-9.37-.35-12.77-1.05-3.46-.71-6.32-1.77-8.49-3.16-2.2-1.39-3.9-3.08-5.05-5.04-1.15-1.98-1.78-4.23-1.88-6.7-.11-2.43.21-5.06.95-7.81.24-1.17.62-2.72,1.16-4.69l1-3.6c-1.35,0-2.59.03-3.69.08l-1.08.04.29-1.04c.43-1.51.81-3.03,1.15-4.52.38-1.66.77-3.25,1.2-4.86.43-1.6.81-3.18,1.12-4.7l.98-4.81h.65c1.5.04,3.07.06,4.7.07l.15-.61c.14-.58.29-1.16.44-1.73.55-2.23.99-4.14,1.34-5.82l.13-.64h.65c1.15.03,2.31.06,3.47.09,1.29.03,2.59.06,3.91.08,2.81.05,5.29.08,7.59.08,1.59,0,3.3-.02,5.1-.05,1.81-.02,3.54-.05,5.25-.08,1.69-.02,3.24-.06,4.63-.11l1.1-.04-.33,1.05c-.7,2.24-1.39,4.59-2.05,6.97-.08.31-.17.63-.26.95,1.88,0,3.73-.02,5.56-.05,3.71-.07,7.12-.06,9.67-.05,2.81.03,5.45.02,7.86-.03l.99-.02-.2.97c-.42,1.98-.93,4.08-1.52,6.22-.6,2.12-1.23,4.25-1.87,6.4-.61,2.02-1.16,4.11-1.65,6.24l-.14.61h-.62c-.86,0-2.32-.01-4.38-.08-1.98-.05-4.22-.08-6.71-.11-3.77-.05-8.14,0-12.59-.07-.16.63-.32,1.26-.48,1.89-.21.82-.42,1.65-.63,2.49-.16.97-.11,1.77.18,2.37.24.5.89.85,1.94,1.04,1.33.22,3.11.33,5.3.33,2.99,0,5.75-.11,8.21-.31,2.39-.2,4.62-.61,6.63-1.21l1.22-.36-.23,1.25c-.25,1.4-.52,2.8-.8,4.23l-.16.82c-.23,1.15-.46,2.3-.7,3.47-.26,1.34-.5,2.76-.71,4.35-.19,1.32-.34,2.7-.47,4.36-.12,1.6-.27,3.01-.46,4.3l-.08.57-.57.09c-2.41.38-4.88.7-7.34.98-2.68.29-5.37.53-8,.69-2.65.18-5.46.27-8.59.27Zm-24.06-33.62h1.03l-1.54,5.58c-.53,1.93-.91,3.45-1.15,4.63-.71,2.64-1.01,5.11-.91,7.38.09,2.24.63,4.2,1.67,5.97,1.02,1.74,2.54,3.26,4.54,4.51,2.01,1.29,4.69,2.28,7.97,2.95,3.31.68,7.5,1.02,12.46,1.02,3.09,0,5.87-.09,8.49-.27,2.61-.16,5.28-.39,7.93-.69,2.24-.25,4.49-.54,6.69-.88.15-1.1.27-2.29.37-3.62.13-1.7.28-3.11.48-4.46.22-1.61.46-3.07.73-4.44.24-1.17.47-2.33.7-3.47l.16-.81c.2-1,.39-1.99.57-2.98-1.78.45-3.7.76-5.72.93-2.5.21-5.3.32-8.34.32-2.28,0-4.15-.12-5.57-.35-1.58-.28-2.61-.92-3.09-1.91-.43-.91-.53-2.01-.3-3.37.22-.9.44-1.73.65-2.56.21-.84.43-1.67.63-2.49l.15-.6h.62c4.68.1,9.26.04,13.21.09,2.49.03,4.74.06,6.73.11,1.61.05,2.85.07,3.72.08.46-1.95.97-3.87,1.53-5.73.64-2.14,1.27-4.25,1.86-6.36.48-1.77.92-3.5,1.28-5.16-2.15.03-4.48.04-6.92.01-2.54-.01-5.93-.02-9.63.05-2.19.03-4.38.05-6.63.05h-1.04l.41-1.42c.15-.51.29-1.01.42-1.51.56-2.03,1.14-4.03,1.74-5.97-1.1.03-2.29.06-3.56.07-1.7.03-3.45.06-5.25.08-1.8.03-3.51.05-5.12.05-2.31,0-4.8-.03-7.62-.08-1.32-.02-2.63-.05-3.92-.08-.94-.02-1.88-.04-2.81-.06-.33,1.54-.73,3.27-1.22,5.25-.15.57-.29,1.14-.43,1.71l-.46,1.82h-.62c-1.63-.02-3.19-.03-4.68-.06l-.72,3.53c-.31,1.55-.7,3.17-1.14,4.8-.42,1.58-.81,3.15-1.18,4.79-.27,1.18-.56,2.37-.88,3.57,1.13-.03,2.37-.04,3.71-.04Z"/>
  </g>
  <g>
    <path class="cls-1" d="m576.63,278.81c-.63,2.12-1.3,4.22-2.05,6.33-.75,2.12-1.41,4.25-2.01,6.41s-1.19,4.33-1.82,6.49c-.61,2.16-1.24,4.51-1.85,7.04-.92-.31-1.93-.56-3.01-.74-1.08-.19-2.24-.28-3.48-.28-1.39,0-2.65.16-3.79.47-1.13.31-2.1.78-2.88,1.43-.8.64-1.5,1.55-2.1,2.71-.58,1.16-1.03,2.51-1.35,4.04-.25,1.35-.55,2.68-.88,4.03-.34,1.33-.69,2.68-1.05,4.01-.36,1.35-.66,2.65-.89,3.93-.22,1.3-.42,2.51-.58,3.64h-32.6c1.03-3.45,2.07-7.16,3.1-11.13,1.02-3.97,2.18-8.62,3.46-13.98,1.35-5.2,2.49-9.7,3.45-13.51.94-3.81,1.68-7.48,2.19-10.97h25.26c-.67,2.16-1.35,4.28-2.01,6.33-.5,1.54-.99,3.13-1.44,4.8-.16.55-.31,1.1-.45,1.66-.06.22-.13.45-.19.69.39-.81.82-1.57,1.25-2.29.14-.25.28-.49.44-.72,1.69-2.66,3.56-4.8,5.56-6.41,2.01-1.63,4.14-2.82,6.41-3.6,2.27-.77,4.64-1.16,7.1-1.16,1.3,0,2.43.08,3.4.24.99.16,1.91.34,2.79.55Z"/>
    <path class="cls-2" d="m549.57,329.11h-34.33l.3-1.01c1.01-3.38,2.05-7.11,3.1-11.1,1.11-4.31,2.27-9.01,3.46-13.96,1.35-5.22,2.49-9.71,3.45-13.52.94-3.8,1.67-7.46,2.18-10.89l.1-.67h27.01l-.32,1.02c-.67,2.17-1.35,4.28-2.01,6.34-.17.53-.34,1.06-.5,1.59,1.37-1.85,2.86-3.43,4.44-4.71,2.05-1.66,4.28-2.92,6.65-3.74,2.36-.8,4.84-1.2,7.36-1.2,1.35,0,2.5.08,3.53.25.92.15,1.85.33,2.84.56l.81.19-.24.8c-.67,2.27-1.35,4.35-2.07,6.37-.71,2-1.36,4.08-1.99,6.36l-.05.17c-.58,2.11-1.16,4.22-1.77,6.33-.68,2.4-1.28,4.69-1.84,7l-.2.83-.81-.28c-.91-.31-1.88-.54-2.88-.7-1.04-.18-2.17-.27-3.36-.27-1.33,0-2.5.14-3.58.44-1.04.29-1.91.72-2.59,1.28-.72.58-1.36,1.41-1.9,2.46-.55,1.1-.98,2.4-1.28,3.84-.23,1.23-.52,2.56-.88,4.06l-.17.66c-.29,1.12-.58,2.26-.88,3.38-.36,1.36-.65,2.63-.88,3.87-.22,1.3-.42,2.49-.57,3.6l-.09.68Zm-32.23-1.57h30.87c.14-.93.31-1.92.48-2.96.24-1.32.54-2.63.91-4.03.3-1.12.59-2.24.88-3.36l.17-.65c.36-1.46.64-2.76.87-3.97.33-1.59.8-3.02,1.42-4.25.65-1.26,1.42-2.26,2.31-2.97.85-.69,1.91-1.22,3.17-1.57,1.22-.34,2.53-.5,4-.5,1.28,0,2.5.1,3.61.29.79.13,1.56.3,2.31.51.51-2.06,1.05-4.11,1.66-6.25.61-2.11,1.19-4.21,1.77-6.32l.04-.17c.64-2.31,1.3-4.43,2.02-6.46.62-1.75,1.21-3.56,1.8-5.49-.66-.14-1.29-.26-1.92-.36-.93-.15-2.03-.23-3.28-.23-2.35,0-4.65.38-6.85,1.12-2.18.75-4.26,1.92-6.17,3.47-1.96,1.58-3.78,3.67-5.4,6.22-.16.23-.29.45-.42.69-.49.81-.89,1.53-1.23,2.24l-1.46-.54.19-.7c.14-.54.29-1.1.45-1.65.43-1.58.92-3.21,1.45-4.84.55-1.73,1.12-3.5,1.68-5.3h-23.52c-.51,3.29-1.22,6.77-2.11,10.38-.96,3.81-2.1,8.31-3.45,13.52-1.19,4.95-2.35,9.66-3.46,13.98-.94,3.62-1.89,7.02-2.81,10.15Z"/>
  </g>
</svg>