<?xml version="1.0" encoding="iso-8859-1"?>
<!-- Uploaded to: SVG Repo, www.svgrepo.com, Generator: SVG Repo Mixer Tools -->
<svg version="1.1" id="Layer_1" xmlns="http://www.w3.org/2000/svg" xmlns:xlink="http://www.w3.org/1999/xlink" 
	 viewBox="0 0 512 512" xml:space="preserve">
<rect x="50.772" y="42.221" style="fill:#D3D3D5;" width="410.455" height="205.228"/>
<rect x="50.772" y="42.221" style="fill:#BDBDC0;" width="17.102" height="205.228"/>
<polygon style="fill:#E9E9EA;" points="495.432,350.063 16.568,350.063 50.772,247.449 461.228,247.449 "/>
<polygon style="fill:#D3D3D5;" points="50.772,247.449 16.568,350.063 33.67,350.063 67.875,247.449 "/>
<rect x="16.568" y="350.063" style="fill:#4E5058;" width="478.864" height="102.614"/>
<polygon style="fill:#383A43;" points="33.67,435.574 33.67,350.063 16.568,350.063 16.568,452.676 495.432,452.676 
	495.432,435.574 "/>
<rect x="170.489" y="8.017" style="fill:#4E5058;" width="171.023" height="34.205"/>
<rect x="170.489" y="8.017" style="fill:#383A43;" width="17.102" height="34.205"/>
<circle style="fill:#909296;" cx="256" cy="144.835" r="68.409"/>
<circle style="fill:#64666D;" cx="256" cy="144.835" r="42.756"/>
<path style="fill:#4E5058;" d="M273.102,170.489c-23.613,0-42.756-19.143-42.756-42.756c0-7.409,1.886-14.377,5.201-20.452
	c-13.287,7.252-22.304,21.35-22.304,37.555c0,23.613,19.143,42.756,42.756,42.756c16.204,0,30.302-9.016,37.555-22.304
	C287.479,168.603,280.511,170.489,273.102,170.489z"/>
<circle style="fill:#64666D;" cx="375.716" cy="196.142" r="17.102"/>
<circle style="fill:#FD5E95;" cx="136.284" cy="196.142" r="17.102"/>
<rect x="358.614" y="76.426" style="fill:#E9E9EA;" width="68.409" height="68.409"/>
<g>
	<polygon style="fill:#BDBDC0;" points="358.614,76.426 358.614,111.699 393.887,76.426 	"/>
	<polygon style="fill:#BDBDC0;" points="420.61,76.426 358.614,138.422 358.614,144.835 383.198,144.835 427.023,101.01 
		427.023,76.426 	"/>
	<polygon style="fill:#BDBDC0;" points="400.835,144.835 427.023,144.835 427.023,118.647 	"/>
</g>
<rect x="136.284" y="384.267" style="fill:#7A7C82;" width="239.432" height="34.205"/>
<rect x="161.937" y="384.267" style="fill:#E9E9EA;" width="188.125" height="119.716"/>
<rect x="161.937" y="384.267" style="fill:#D3D3D5;" width="188.125" height="17.102"/>
<rect x="238.898" y="247.449" style="fill:#FD5E95;" width="34.205" height="102.614"/>
<rect x="273.102" y="247.449" style="fill:#0AADBF;" width="34.205" height="102.614"/>
<rect x="204.693" y="247.449" style="fill:#F9D84E;" width="34.205" height="102.614"/>
<circle style="fill:#BDBDC0;" cx="260.276" cy="140.56" r="12.827"/>
<path d="M503.427,349.632c-0.005-0.102-0.006-0.203-0.015-0.305c-0.056-0.607-0.178-1.194-0.362-1.755
	c-0.004-0.015-0.007-0.03-0.012-0.045l-33.794-101.379V42.221c0-4.427-3.588-8.017-8.017-8.017H349.528V8.017
	c0-4.427-3.588-8.017-8.017-8.017H170.489c-4.428,0-8.017,3.589-8.017,8.017v26.188H50.772c-4.428,0-8.017,3.589-8.017,8.017v42.756
	c0,4.427,3.588,8.017,8.017,8.017s8.017-3.589,8.017-8.017V50.238h394.422v189.194H58.789V119.182c0-4.427-3.588-8.017-8.017-8.017
	s-8.017,3.589-8.017,8.017v126.966L8.963,347.527c-0.005,0.015-0.007,0.03-0.012,0.045c-0.183,0.56-0.307,1.147-0.362,1.755
	c-0.01,0.102-0.01,0.203-0.015,0.305c-0.009,0.144-0.022,0.285-0.022,0.431v102.614c0,4.427,3.588,8.017,8.017,8.017h137.353v43.29
	c0,4.427,3.588,8.017,8.017,8.017h188.125c4.428,0,8.017-3.589,8.017-8.017v-43.29h137.353c4.428,0,8.017-3.589,8.017-8.017V350.063
	C503.449,349.917,503.435,349.776,503.427,349.632z M178.505,34.205V16.033h154.99v18.171H178.505z M299.29,342.046h-18.171v-86.58
	h18.171V342.046z M265.086,342.046h-18.171v-86.58h18.171V342.046z M230.881,255.466v86.58H212.71v-86.58H230.881z M56.55,255.466
	h140.127v86.58H27.69L56.55,255.466z M153.921,410.455h-9.62v-18.171h9.62V410.455z M342.046,495.967H169.954V392.284h172.092
	V495.967z M367.699,392.284v18.171h-9.62v-18.171H367.699z M358.079,444.66v-18.171h17.637c4.428,0,8.017-3.589,8.017-8.017v-34.205
	c0-4.427-3.588-8.017-8.017-8.017H136.284c-4.428,0-8.017,3.589-8.017,8.017v34.205c0,4.427,3.588,8.017,8.017,8.017h17.637v18.171
	H24.585v-86.58h393.887c4.428,0,8.017-3.589,8.017-8.017c0-4.427-3.588-8.017-8.017-8.017H315.324v-86.58H455.45l28.86,86.58
	h-31.634c-4.428,0-8.017,3.589-8.017,8.017c0,4.427,3.588,8.017,8.017,8.017h34.739v86.58H358.079z"/>
<path d="M332.426,144.835c0-42.141-34.285-76.426-76.426-76.426s-76.426,34.285-76.426,76.426s34.285,76.426,76.426,76.426
	S332.426,186.976,332.426,144.835z M195.608,144.835c0-33.3,27.092-60.392,60.392-60.392s60.392,27.092,60.392,60.392
	S289.3,205.228,256,205.228S195.608,178.135,195.608,144.835z"/>
<path d="M306.772,144.835c0-27.995-22.777-50.772-50.772-50.772s-50.772,22.777-50.772,50.772s22.777,50.772,50.772,50.772
	S306.772,172.83,306.772,144.835z M221.261,144.835c0-19.155,15.583-34.739,34.739-34.739c19.156,0,34.739,15.584,34.739,34.739
	c0,19.155-15.583,34.739-34.739,34.739S221.261,163.99,221.261,144.835z"/>
<path d="M375.716,221.261c13.851,0,25.119-11.268,25.119-25.119c0-13.851-11.268-25.119-25.119-25.119
	c-13.851,0-25.119,11.268-25.119,25.119C350.597,209.993,361.865,221.261,375.716,221.261z M375.716,187.056
	c5.01,0,9.086,4.076,9.086,9.086s-4.076,9.086-9.086,9.086s-9.086-4.076-9.086-9.086S370.706,187.056,375.716,187.056z"/>
<path d="M136.284,171.023c-13.851,0-25.119,11.268-25.119,25.119c0,13.851,11.268,25.119,25.119,25.119
	c13.851,0,25.119-11.268,25.119-25.119C161.403,182.291,150.135,171.023,136.284,171.023z M136.284,205.228
	c-5.01,0-9.086-4.076-9.086-9.086s4.076-9.086,9.086-9.086c5.01,0,9.086,4.076,9.086,9.086S141.294,205.228,136.284,205.228z"/>
<path d="M427.023,152.852c4.428,0,8.017-3.589,8.017-8.017V76.426c0-4.427-3.588-8.017-8.017-8.017h-68.409
	c-4.428,0-8.017,3.589-8.017,8.017v68.409c0,4.427,3.588,8.017,8.017,8.017H427.023z M366.63,84.443h52.376v52.376H366.63V84.443z"
	/>
<path d="M84.977,118.647h68.409c4.428,0,8.017-3.589,8.017-8.017c0-4.427-3.588-8.017-8.017-8.017H84.977
	c-4.428,0-8.017,3.589-8.017,8.017C76.96,115.058,80.549,118.647,84.977,118.647z"/>
<path d="M84.977,152.852h68.409c4.428,0,8.017-3.589,8.017-8.017c0-4.427-3.588-8.017-8.017-8.017H84.977
	c-4.428,0-8.017,3.589-8.017,8.017C76.96,149.262,80.549,152.852,84.977,152.852z"/>
</svg>